<!-- Mobile Portrait Template for 2 Vertical Slots (1080x1920 - Instagram Story Size) -->
<svg width="1080" height="1920" xmlns="http://www.w3.org/2000/svg">
  <!-- Background Gradient -->
  <defs>
    <linearGradient id="bgGradient" x1="0%" y1="0%" x2="0%" y2="100%">
      <stop offset="0%" style="stop-color:#74A57F;stop-opacity:0.1" />
      <stop offset="50%" style="stop-color:#74A57F;stop-opacity:0.05" />
      <stop offset="100%" style="stop-color:#74A57F;stop-opacity:0.1" />
    </linearGradient>
    <filter id="shadow" x="-20%" y="-20%" width="140%" height="140%">
      <feDropShadow dx="0" dy="4" stdDeviation="8" flood-color="#000000" flood-opacity="0.1"/>
    </filter>
  </defs>
  
  <!-- Background -->
  <rect width="1080" height="1920" fill="url(#bgGradient)"/>
  
  <!-- Top Header -->
  <rect x="0" y="0" width="1080" height="220" fill="#74A57F"/>
  
  <!-- Main Title -->
  <text x="540" y="90" text-anchor="middle" font-family="Arial, sans-serif" font-size="52" font-weight="bold" fill="white">
    Photobooth
  </text>
  <text x="540" y="150" text-anchor="middle" font-family="Arial, sans-serif" font-size="36" font-weight="600" fill="white">
    Coban Talun
  </text>
  <text x="540" y="190" text-anchor="middle" font-family="Arial, sans-serif" font-size="24" fill="white" opacity="0.9">
    Duo Memories
  </text>
  
  <!-- Photo Slots with Decorative Frames -->
  
  <!-- Slot 1 - Top -->
  <rect x="120" y="380" width="840" height="540" rx="25" fill="white" filter="url(#shadow)"/>
  <rect x="140" y="400" width="800" height="500" rx="20" fill="#f8f9fa" stroke="#dee2e6" stroke-width="4" stroke-dasharray="12,6"/>
  <text x="540" y="660" text-anchor="middle" font-family="Arial, sans-serif" font-size="32" fill="#6c757d" font-weight="500">Foto Pertama</text>
  
  <!-- Slot 2 - Bottom -->
  <rect x="120" y="1000" width="840" height="540" rx="25" fill="white" filter="url(#shadow)"/>
  <rect x="140" y="1020" width="800" height="500" rx="20" fill="#f8f9fa" stroke="#dee2e6" stroke-width="4" stroke-dasharray="12,6"/>
  <text x="540" y="1280" text-anchor="middle" font-family="Arial, sans-serif" font-size="32" fill="#6c757d" font-weight="500">Foto Kedua</text>
  
  <!-- Decorative Elements -->
  <circle cx="80" cy="350" r="20" fill="#74A57F" opacity="0.4"/>
  <circle cx="1000" cy="350" r="20" fill="#74A57F" opacity="0.4"/>
  <circle cx="80" cy="970" r="20" fill="#74A57F" opacity="0.4"/>
  <circle cx="1000" cy="970" r="20" fill="#74A57F" opacity="0.4"/>
  <circle cx="80" cy="1590" r="20" fill="#74A57F" opacity="0.4"/>
  <circle cx="1000" cy="1590" r="20" fill="#74A57F" opacity="0.4"/>
  
  <!-- Heart decorations -->
  <path d="M540 320 C535 315, 525 315, 520 320 C515 315, 505 315, 500 320 C500 330, 520 345, 540 355 C560 345, 580 330, 580 320 C575 315, 565 315, 560 320 C555 315, 545 315, 540 320 Z" fill="#74A57F" opacity="0.3"/>
  
  <!-- Bottom Footer -->
  <rect x="0" y="1720" width="1080" height="200" fill="#74A57F"/>
  <text x="540" y="1780" text-anchor="middle" font-family="Arial, sans-serif" font-size="38" fill="white" font-weight="600">
    Perfect Moments from
  </text>
  <text x="540" y="1830" text-anchor="middle" font-family="Arial, sans-serif" font-size="44" fill="white" font-weight="bold">
    Coban Talun
  </text>
  <text x="540" y="1870" text-anchor="middle" font-family="Arial, sans-serif" font-size="24" fill="white" opacity="0.8">
    #CobanTalun #CoupleGoals
  </text>
</svg>
